<?xml version="1.0" encoding="utf-8"?>
<!-- Generator: Adobe Illustrator 16.0.0, SVG Export Plug-In . SVG Version: 6.00 Build 0)  -->
<!DOCTYPE svg PUBLIC "-//W3C//DTD SVG 1.1//EN" "http://www.w3.org/Graphics/SVG/1.1/DTD/svg11.dtd">
<svg version="1.1" id="Layer_1" xmlns="http://www.w3.org/2000/svg" xmlns:xlink="http://www.w3.org/1999/xlink" x="0px" y="0px"
	 width="1500px" height="500px" viewBox="0 0 1500 500" enable-background="new 0 0 1500 500" xml:space="preserve">
<g>
	<defs>
		<rect id="SVGID_1_" width="1500" height="500"/>
	</defs>
	<clipPath id="SVGID_2_">
		<use xlink:href="#SVGID_1_"  overflow="visible"/>
	</clipPath>
	<g clip-path="url(#SVGID_2_)">
		<rect y="-36" fill="#3CCF80" width="1500" height="572"/>
		<g>
			<defs>
				<rect id="SVGID_3_" y="-34" width="1500" height="570"/>
			</defs>
			<clipPath id="SVGID_4_">
				<use xlink:href="#SVGID_3_"  overflow="visible"/>
			</clipPath>
			<path opacity="0.1" clip-path="url(#SVGID_4_)" d="M1482.143,425.982v-30.446h-40.283v-68.695h-42.393v-46.938h-23.088v-29.064
				c0-2.101-1.703-3.806-3.807-3.806c-2.102,0-3.805,1.705-3.805,3.806v29.064h-18.695v52.201h-41.309v-32.98h-54.525v32.98h-24.836
				v-16.489l-33.48-15.225l-39.426,15.225v31.712h-24.656v-67.962h-42.395v-46.938h-23.088v-29.064c0-2.101-1.703-3.804-3.805-3.804
				c-2.104,0-3.807,1.703-3.807,3.804v29.064h-18.695v52.203h-41.309V251.65h-54.523v32.979h-24.836v-16.49l-33.483-15.224
				l-39.425,15.224v31.714h-71.151v78.654H732.19v27.288h-22.189v-68.695h-42.394v-46.938H644.52v-29.066
				c0-2.102-1.703-3.803-3.807-3.803c-2.102,0-3.805,1.701-3.805,3.803v29.066h-18.695v52.202h-41.309v-32.98H522.38v32.98h-24.837
				v-16.489l-33.482-15.225l-39.424,15.225v31.714H399.98v-67.964h-42.395v-46.937h-23.088v-29.066c0-2.101-1.703-3.806-3.806-3.806
				s-3.806,1.705-3.806,3.806v29.066h-18.695v52.201h-41.309V261.91h-54.523v32.979h-24.838v-16.49l-33.482-15.224l-39.423,15.224
				v31.714H43.463v78.65H0.332v161.112h310.021v47.475H768.31v-57.734h273.901v47.475h457.957V425.982H1482.143z"/>
			<g opacity="0.1" clip-path="url(#SVGID_4_)">
				<g>
					<path fill="#C8E6C9" d="M1538.018,158.384h-14.27c-0.24-17.727-11.48-32.794-27.207-38.687
						c-1.051-27.959-24.041-50.303-52.258-50.303c-27.328,0-49.76,20.967-52.096,47.691c-22.072,0.993-39.697,19.052-39.998,41.298
						h-0.361c-4.9,0-8.875,3.973-8.875,8.876c0,4.902,3.975,8.879,8.875,8.879h186.189c4.902,0,8.877-3.977,8.877-8.879
						C1546.895,162.356,1542.92,158.384,1538.018,158.384z"/>
				</g>
				<g>
					<path fill="#424242" d="M1538.018,179.993h-186.189c-7.02,0-12.73-5.712-12.73-12.733c0-5.87,3.992-10.823,9.404-12.29
						c1.869-21.562,18.734-38.953,40.227-41.47c1.855-12.687,8.002-24.348,17.521-33.118c10.391-9.571,23.898-14.843,38.033-14.843
						c14.627,0,28.475,5.594,38.994,15.749c9.887,9.542,15.854,22.16,16.967,35.754c7.533,3.309,14.012,8.564,18.842,15.318
						c4.703,6.576,7.543,14.173,8.309,22.17h10.623c7.02,0,12.73,5.709,12.73,12.729
						C1550.748,174.281,1545.037,179.993,1538.018,179.993z M1351.828,162.238c-2.77,0-5.021,2.252-5.021,5.021
						c0,2.771,2.252,5.024,5.021,5.024h186.189c2.77,0,5.023-2.254,5.023-5.024c0-2.77-2.254-5.021-5.023-5.021h-18.072
						l-0.051-3.804c-0.105-7.799-2.553-15.266-7.078-21.591c-4.432-6.195-10.527-10.878-17.627-13.538l-2.4-0.899l-0.098-2.566
						c-0.473-12.546-5.717-24.268-14.77-33.006c-9.074-8.762-21.021-13.586-33.639-13.586c-12.195,0-23.848,4.548-32.809,12.804
						c-8.914,8.21-14.396,19.351-15.447,31.369l-0.295,3.364l-3.371,0.15c-20.092,0.905-36.047,17.376-36.32,37.499l-0.049,3.804
						H1351.828z"/>
				</g>
				<g>
					<g>
						<path fill="#E8F5E9" d="M1447.508,86.526c0,2.773-2.25,5.021-5.021,5.021c-14.861,0-26.955,12.093-26.955,26.955
							c0,2.773-2.25,5.021-5.023,5.021s-5.018-2.247-5.018-5.021c0-9.883,3.846-19.172,10.834-26.163
							c6.986-6.985,16.277-10.834,26.162-10.834C1445.258,81.506,1447.508,83.754,1447.508,86.526z"/>
					</g>
				</g>
			</g>
		</g>
		<g>
			<defs>
				<rect id="SVGID_5_" x="0.332" y="-35.49" width="1283.977" height="570.59"/>
			</defs>
			<clipPath id="SVGID_6_">
				<use xlink:href="#SVGID_5_"  overflow="visible"/>
			</clipPath>
			<g clip-path="url(#SVGID_6_)">
				<g>
					<path fill="#1EBC6D" d="M909.854,576.588c-2.985-24.839-24.358-44.104-50.287-44.104c-0.021,0-0.042,0-0.063,0
						c0.039-0.939,0.063-1.885,0.063-2.833c0-38.908-31.901-70.448-71.253-70.448c-24.681,0-46.432,12.411-59.217,31.265
						c-1.776-0.111-3.566-0.175-5.371-0.175c-7.133,0-14.055,0.888-20.662,2.557c-4.4-30.196-28.166-54.187-58.451-59.292
						c-5.508-21.758-25.404-37.877-49.117-37.877c-0.021,0-0.041,0-0.063,0c0.038-0.94,0.063-1.884,0.063-2.832
						c0-38.907-31.9-70.448-71.252-70.448c-24.682,0-46.432,12.411-59.217,31.265c-1.777-0.113-3.568-0.175-5.373-0.175
						c-7.133,0-14.053,0.888-20.66,2.555c-4.973-34.103-34.638-60.313-70.506-60.313c-24.684,0-46.432,12.411-59.22,31.266
						c-1.776-0.112-3.565-0.178-5.371-0.178c-31.295,0-58.554,17.07-72.787,42.303c-8.354-6.011-18.634-9.565-29.758-9.565
						c-0.021,0-0.042,0-0.063,0c0.037-0.939,0.063-1.883,0.063-2.832c0-38.907-31.9-70.447-71.253-70.447
						c-24.682,0-46.431,12.411-59.217,31.264c-1.777-0.111-3.567-0.175-5.372-0.175c-45.999,0-83.29,36.869-83.29,82.351
						c0,7.025-10.887,117.532-9.213,124.045h246.871c0.056,15.66,0.262,27.069,0.728,28.884h24.468
						c-2.791,32.623-9.318,102.771-7.996,107.919h246.871c0.057,15.659,0.263,27.069,0.729,28.884h146.474
						c-0.15,3.837-0.144,6.402,0.071,7.239h277.079C904.551,690.163,916.057,580.861,909.854,576.588z"/>
					<path fill="#424242" d="M921.918,704.562H625.117l-1.522-5.912c-0.101-0.391-0.187-0.811-0.253-1.325h-144.77l-1.521-5.915
						c-0.334-1.289-0.774-3.009-0.934-22.971H230.972l-1.521-5.915c-1.141-4.431,0.11-23.173,6.084-91.153
						c0.334-3.803,0.653-7.443,0.95-10.851H214.5l-1.521-5.913c-0.332-1.29-0.772-3.009-0.932-22.971H-33.099l-1.521-5.915
						c-1.14-4.431,0.111-23.177,6.085-91.167c1.409-16.05,2.867-32.646,2.879-34.842c0-49.749,40.897-90.225,91.167-90.225
						c0.48,0,0.968,0.005,1.459,0.013c14.935-19.556,38.212-31.103,63.13-31.103c42.093,0,76.615,32.701,78.998,73.786
						c6.842,0.895,13.408,2.965,19.483,6.142c16.896-24.478,45.058-39.383,75.316-39.383c0.483,0,0.97,0.004,1.459,0.011
						c14.937-19.553,38.216-31.1,63.132-31.1c19.128,0,37.591,6.849,51.988,19.283c12.145,10.491,20.721,24.337,24.668,39.613
						c4.783-0.758,9.639-1.14,14.51-1.14c0.48,0,0.967,0.004,1.459,0.013c14.936-19.556,38.212-31.102,63.131-31.102
						c42.096,0,76.618,32.703,78.997,73.789c21.88,2.879,40.317,17.702,47.55,38.452c14.585,3.393,27.764,10.762,38.359,21.496
						c9.821,9.948,16.669,22.025,20.074,35.294c4.779-0.757,9.634-1.139,14.502-1.139c0.48,0,0.965,0.005,1.457,0.014
						c14.938-19.558,38.213-31.102,63.131-31.102c42.098,0,76.619,32.703,78.999,73.79c25.442,3.359,46.016,22.907,50.056,48.357
						c3.035,5.956,2.933,20.751-0.057,72.298c-1.101,18.937-2.459,42.352-1.713,47.803L921.918,704.562z M639.059,688.809h260.606
						c-0.056-7.821,0.581-20.889,1.917-43.948c1.201-20.615,3.152-54.301,1.85-63.131l-0.975-0.671l-0.425-3.531
						c-2.544-21.188-20.802-37.169-42.465-37.169h-8.198l0.266-8.189c0.032-0.836,0.057-1.674,0.057-2.519
						c0-34.502-28.43-62.57-63.377-62.57c-21.189,0-40.888,10.396-52.697,27.808l-2.525,3.724l-4.49-0.283
						c-1.68-0.106-3.322-0.158-4.875-0.158c-6.344,0-12.645,0.776-18.732,2.315l-8.463,2.135l-1.26-8.637
						c-3.924-26.919-24.808-48.083-51.967-52.661l-5.064-0.855l-1.262-4.979c-4.762-18.799-21.82-31.933-41.482-31.933h-8.199
						l0.266-8.19c0.033-0.834,0.057-1.674,0.057-2.517c0-34.503-28.43-62.571-63.375-62.571c-21.188,0-40.889,10.396-52.699,27.808
						l-2.523,3.722l-4.489-0.28c-1.683-0.106-3.323-0.16-4.878-0.16c-6.342,0-12.645,0.779-18.732,2.316l-8.463,2.135l-1.258-8.636
						c-4.455-30.542-31.414-53.574-62.713-53.574c-21.188,0-40.891,10.398-52.701,27.81l-2.525,3.724l-4.488-0.283
						c-1.713-0.107-3.309-0.161-4.876-0.161c-27.341,0-52.603,14.673-65.927,38.296l-4.32,7.66l-7.139-5.138
						c-7.351-5.287-16.051-8.082-25.159-8.082h-8.198l0.265-8.19c0.033-0.834,0.058-1.675,0.058-2.518
						c0-34.501-28.432-62.57-63.377-62.57c-21.188,0-40.889,10.395-52.697,27.808l-2.524,3.724l-4.49-0.283
						c-1.683-0.105-3.323-0.159-4.877-0.159c-41.585,0-75.415,33.408-75.415,74.474c0,2.639-1.007,14.233-2.938,36.216
						c-2.06,23.438-5.599,63.725-6.333,79.951h246.904l0.027,7.849c0.037,10.521,0.139,17.023,0.246,21.037h25.65l-0.73,8.549
						c-0.477,5.559-1.061,12.203-1.695,19.434c-2.059,23.432-5.597,63.71-6.332,79.935h246.904l0.027,7.85
						c0.037,10.52,0.139,17.022,0.248,21.036h147.27L639.059,688.809z"/>
				</g>
				<g>
					<g>
						<path fill="#22CD7E" d="M2.674,406.32c-3.689,0-6.679-2.957-6.679-6.604c0-37.899,31.185-68.732,69.516-68.732
							c3.688,0,6.678,2.957,6.678,6.604s-2.989,6.605-6.678,6.605c-30.966,0-56.158,24.906-56.158,55.522
							C9.353,403.363,6.363,406.32,2.674,406.32z"/>
					</g>
				</g>
				<g>
					<path fill="#22CD7E" d="M90.051,336.816c-1.276,0-2.568-0.36-3.709-1.117c-3.066-2.029-3.887-6.13-1.834-9.16
						c16.835-24.856,50.984-31.539,76.125-14.893c3.062,2.027,3.883,6.129,1.833,9.158c-2.054,3.033-6.201,3.846-9.266,1.813
						c-19.021-12.595-44.856-7.538-57.595,11.268C94.318,335.787,92.203,336.816,90.051,336.816z"/>
				</g>
				<g>
					<path fill="#22CD7E" stroke="#424242" stroke-width="18" stroke-miterlimit="10" d="M-48.466,396.72"/>
				</g>
				<g>
					<g>
						<path fill="#22CD7E" d="M396.818,442.443c-3.689,0-6.68-2.955-6.68-6.604c0-37.898,31.186-68.73,69.516-68.73
							c3.688,0,6.679,2.955,6.679,6.603c0,3.648-2.99,6.604-6.679,6.604c-30.965,0-56.158,24.908-56.158,55.523
							C403.496,439.488,400.506,442.443,396.818,442.443z"/>
					</g>
				</g>
				<g>
					<path fill="#22CD7E" d="M484.195,372.939c-1.277,0-2.568-0.362-3.709-1.117c-3.066-2.029-3.887-6.13-1.834-9.162
						c16.834-24.856,50.982-31.536,76.125-14.891c3.062,2.027,3.883,6.13,1.832,9.159c-2.053,3.032-6.201,3.845-9.266,1.812
						c-19.021-12.592-44.855-7.537-57.595,11.268C488.461,371.911,486.346,372.939,484.195,372.939z"/>
				</g>
				<g>
					<path fill="#22CD7E" stroke="#424242" stroke-width="18" stroke-miterlimit="10" d="M345.678,432.846"/>
				</g>
				<g>
					<g>
						<path fill="#22CD7E" d="M243.586,417.52c-3.691,0-6.682-2.954-6.682-6.6c0-37.899,31.186-68.734,69.516-68.734
							c3.688,0,6.679,2.956,6.679,6.604s-2.991,6.603-6.679,6.603c-30.966,0-56.158,24.911-56.158,55.528
							C250.262,414.565,247.273,417.52,243.586,417.52z"/>
					</g>
				</g>
				<g>
					<path fill="#22CD7E" d="M330.961,348.016c-1.279,0-2.57-0.36-3.711-1.114c-3.063-2.031-3.885-6.133-1.832-9.161
						c16.834-24.857,50.982-31.536,76.124-14.893c3.064,2.026,3.886,6.13,1.831,9.159c-2.051,3.03-6.197,3.844-9.264,1.813
						c-19.02-12.594-44.856-7.54-57.594,11.267C335.229,346.987,333.113,348.016,330.961,348.016z"/>
				</g>
				<g>
					<path fill="#22CD7E" stroke="#424242" stroke-width="18" stroke-miterlimit="10" d="M226.774,406.175"/>
				</g>
			</g>
		</g>
		<g>
			<defs>
				<polyline id="SVGID_7_" points="1500.168,535.1 1500.168,-35.49 216.191,-35.49 216.191,535.1 1500.168,535.1 				"/>
			</defs>
			<clipPath id="SVGID_8_">
				<use xlink:href="#SVGID_7_"  overflow="visible"/>
			</clipPath>
			<g clip-path="url(#SVGID_8_)">
				<g>
					<path fill="#1EBC6D" d="M1865.203,421.346c-12.828-21.479-40.191-30.387-63.875-19.84c-0.021,0.008-0.041,0.018-0.061,0.026
						c-0.348-0.874-0.709-1.746-1.094-2.612c-15.824-35.548-57.795-51.385-93.744-35.381c-22.549,10.04-37.371,30.225-41.383,52.649
						c-1.67,0.618-3.332,1.288-4.979,2.022c-6.518,2.902-12.479,6.528-17.836,10.737c-16.301-25.795-47.771-38.046-77.514-30.39
						c-13.883-17.639-38.611-24.27-60.277-14.627c-0.018,0.009-0.037,0.017-0.059,0.026c-0.348-0.874-0.707-1.747-1.092-2.612
						c-15.824-35.546-57.797-51.386-93.748-35.379c-22.547,10.038-37.369,30.222-41.381,52.646c-1.668,0.619-3.33,1.291-4.977,2.025
						c-6.518,2.899-12.479,6.527-17.838,10.735c-18.41-29.133-56.174-41.009-88.941-26.422
						c-22.551,10.038-37.369,30.222-41.385,52.646c-1.668,0.621-3.326,1.288-4.977,2.024c-28.59,12.727-46.549,39.407-49.289,68.248
						c-10.078-2.094-20.912-1.16-31.078,3.367c-0.018,0.008-0.037,0.016-0.057,0.024c-0.348-0.874-0.709-1.745-1.094-2.612
						c-15.824-35.546-57.795-51.384-93.744-35.381c-22.553,10.04-37.369,30.223-41.383,52.647c-1.67,0.621-3.334,1.293-4.98,2.025
						c-42.022,18.709-61.096,67.56-42.598,109.108c2.859,6.418,37.857,111.8,42.037,117.067l225.529-100.407
						c6.42,14.284,11.25,24.624,12.414,26.092l22.352-9.952c10.719,30.939,33.283,97.678,36.59,101.841l225.527-100.406
						c6.42,14.284,11.248,24.624,12.414,26.09l133.811-59.57c1.424,3.562,2.473,5.906,3.01,6.582l253.127-112.694
						C1906.551,527.26,1872.609,422.729,1865.203,421.346z"/>
					<path fill="#424242" d="M1653.334,649.283c-0.248-0.316-0.496-0.665-0.768-1.109l-132.256,58.883l-3.795-4.785
						c-0.83-1.044-1.932-2.436-10.197-20.604l-223.953,99.704l-3.793-4.785c-2.844-3.583-9.324-21.214-31.52-85.748
						c-1.238-3.609-2.428-7.064-3.541-10.3l-20.086,8.944l-3.795-4.785c-0.826-1.042-1.93-2.435-10.195-20.604l-223.951,99.705
						l-3.797-4.785c-2.844-3.585-9.326-21.219-31.521-85.763c-5.24-15.235-10.656-30.987-11.539-32.996
						c-20.236-45.45,0.663-99.062,46.588-119.507c0.439-0.195,0.889-0.39,1.34-0.583c5.691-23.938,22.258-43.955,45.025-54.089
						c38.451-17.12,83.287-1.286,102.174,35.274c6.602-1.963,13.449-2.741,20.301-2.31c5.479-29.235,25.143-54.306,52.785-66.612
						c0.443-0.197,0.889-0.39,1.338-0.584c5.695-23.937,22.264-43.955,45.025-54.088c17.475-7.782,37.127-9.032,55.338-3.527
						c15.359,4.644,28.828,13.805,38.65,26.155c4.061-2.639,8.338-4.96,12.787-6.943c0.441-0.194,0.885-0.39,1.338-0.581
						c5.693-23.939,22.262-43.954,45.023-54.088c38.455-17.121,83.291-1.289,102.178,35.276
						c21.135-6.276,44.025-0.235,59.082,15.792c14.703-2.832,29.74-1.462,43.787,4.036c13.018,5.093,24.186,13.341,32.691,24.077
						c4.061-2.635,8.338-4.958,12.787-6.938c0.438-0.194,0.885-0.389,1.336-0.58c5.689-23.94,22.26-43.954,45.025-54.091
						c38.453-17.117,83.289-1.285,102.178,35.276c24.578-7.286,51.348,2.205,65.402,23.824c5.189,4.208,11.115,17.764,29.348,66.072
						c6.697,17.748,14.98,39.689,17.879,44.367l10.24,7.466l-271.143,120.715L1653.334,649.283z M1885.416,487.082
						c-7.293-19.322-19.205-50.891-23.99-58.427l-1.162-0.217l-1.822-3.054c-10.945-18.321-34.123-25.496-53.971-16.658l-7.49,3.334
						l-3.031-7.614c-0.311-0.777-0.627-1.554-0.969-2.324c-14.033-31.518-51.424-45.599-83.346-31.385
						c-19.359,8.617-33.129,26.127-36.836,46.838l-0.791,4.427l-4.219,1.567c-1.576,0.587-3.1,1.206-4.518,1.838
						c-5.795,2.579-11.236,5.854-16.172,9.735l-6.863,5.391l-4.662-7.378c-14.535-22.992-42.221-33.834-68.893-26.971l-4.977,1.278
						l-3.176-4.034c-11.996-15.239-32.92-20.301-50.941-12.277l-7.49,3.336l-3.029-7.616c-0.312-0.774-0.631-1.553-0.975-2.322
						c-14.033-31.522-51.42-45.6-83.346-31.387c-19.357,8.618-33.125,26.128-36.83,46.838l-0.797,4.428l-4.213,1.567
						c-1.58,0.587-3.102,1.207-4.52,1.838c-5.795,2.581-11.236,5.854-16.172,9.736l-6.863,5.39l-4.662-7.376
						c-16.492-26.091-50.488-36.168-79.082-23.438c-19.357,8.619-33.125,26.13-36.834,46.843l-0.791,4.427l-4.217,1.567
						c-1.609,0.601-3.088,1.198-4.521,1.837c-24.977,11.118-42.088,34.799-44.65,61.8l-0.832,8.753l-8.613-1.788
						c-8.861-1.842-17.947-0.858-26.326,2.874l-7.492,3.334l-3.029-7.615c-0.311-0.776-0.629-1.554-0.973-2.324
						c-14.029-31.518-51.422-45.597-83.344-31.385c-19.359,8.617-33.129,26.126-36.834,46.838l-0.791,4.426l-4.219,1.567
						c-1.578,0.59-3.098,1.206-4.518,1.84c-37.99,16.913-55.307,61.192-38.605,98.709c1.072,2.408,4.867,13.412,12.043,34.279
						c7.65,22.25,20.805,60.491,26.732,75.616l225.561-100.422l3.217,7.159c4.312,9.597,7.051,15.494,8.779,19.118l23.436-10.433
						l2.809,8.107c1.824,5.271,3.994,11.581,6.357,18.442c7.65,22.243,20.799,60.48,26.725,75.603l225.561-100.421l3.215,7.16
						c4.316,9.593,7.053,15.492,8.781,19.114l134.543-59.896l2.684,6.728l238.08-105.995
						C1898.307,520.887,1893.572,508.691,1885.416,487.082z"/>
				</g>
				<g>
					<g>
						<path fill="#22CD7E" d="M967.195,634.764c-3.371,1.502-7.305,0.018-8.789-3.314c-15.414-34.624,0.537-75.477,35.553-91.065
							c3.369-1.501,7.303-0.015,8.785,3.316c1.486,3.333-0.041,7.251-3.412,8.751c-28.287,12.593-41.172,45.595-28.721,73.565
							C972.094,629.347,970.564,633.264,967.195,634.764z"/>
					</g>
				</g>
				<g>
					<path fill="#22CD7E" d="M1018.752,535.73c-1.168,0.519-2.496,0.717-3.846,0.488c-3.627-0.605-6.045-4.021-5.4-7.622
						c5.27-29.555,33.748-49.547,63.488-44.566c3.623,0.604,6.039,4.021,5.398,7.621c-0.643,3.606-4.102,6.035-7.727,5.425
						c-22.498-3.77-44.043,11.356-48.031,33.718C1022.232,533.055,1020.717,534.855,1018.752,535.73z"/>
				</g>
				<g>
					<path fill="#22CD7E" stroke="#424242" stroke-width="18" stroke-miterlimit="10" d="M916.57,646.794"/>
				</g>
				<g>
					<g>
						<path fill="#22CD7E" d="M1341.959,507.459c-3.371,1.501-7.305,0.017-8.787-3.317c-15.416-34.62,0.533-75.473,35.553-91.063
							c3.367-1.499,7.301-0.015,8.785,3.318c1.484,3.331-0.049,7.249-3.414,8.75c-28.289,12.593-41.176,45.594-28.725,73.564
							C1346.855,502.043,1345.326,505.96,1341.959,507.459z"/>
					</g>
				</g>
				<g>
					<path fill="#22CD7E" d="M1393.512,408.427c-1.164,0.519-2.492,0.713-3.842,0.487c-3.625-0.607-6.043-4.02-5.4-7.623
						c5.27-29.557,33.748-49.548,63.488-44.566c3.623,0.606,6.039,4.02,5.4,7.623c-0.646,3.606-4.102,6.033-7.729,5.424
						c-22.498-3.77-44.045,11.355-48.035,33.719C1396.992,405.751,1395.48,407.552,1393.512,408.427z"/>
				</g>
				<g>
					<path fill="#22CD7E" stroke="#424242" stroke-width="18" stroke-miterlimit="10" d="M1291.336,519.49"/>
				</g>
				<g>
					<g>
						<path fill="#22CD7E" d="M1191.836,547.012c-3.373,1.501-7.307,0.02-8.789-3.312c-15.416-34.623,0.535-75.476,35.551-91.064
							c3.371-1.501,7.303-0.017,8.787,3.316c1.484,3.331-0.045,7.247-3.416,8.749c-28.287,12.593-41.172,45.596-28.719,73.566
							C1196.732,541.599,1195.203,545.514,1191.836,547.012z"/>
					</g>
				</g>
				<g>
					<path fill="#22CD7E" d="M1243.389,447.979c-1.17,0.521-2.494,0.717-3.844,0.492c-3.625-0.608-6.041-4.021-5.4-7.624
						c5.271-29.556,33.752-49.546,63.488-44.566c3.623,0.604,6.041,4.021,5.398,7.623c-0.641,3.603-4.1,6.032-7.729,5.425
						c-22.494-3.768-44.045,11.355-48.029,33.718C1246.871,445.305,1245.355,447.104,1243.389,447.979z"/>
				</g>
				<g>
					<path fill="#22CD7E" stroke="#424242" stroke-width="18" stroke-miterlimit="10" d="M1171.861,543.486"/>
				</g>
			</g>
		</g>
	</g>
</g>
</svg>
