<?xml version="1.0" encoding="utf-8"?>
<!-- Generator: Adobe Illustrator 16.0.0, SVG Export Plug-In . SVG Version: 6.00 Build 0)  -->
<!DOCTYPE svg PUBLIC "-//W3C//DTD SVG 1.1//EN" "http://www.w3.org/Graphics/SVG/1.1/DTD/svg11.dtd">
<svg version="1.1" id="Layer_1" xmlns="http://www.w3.org/2000/svg" xmlns:xlink="http://www.w3.org/1999/xlink" x="0px" y="0px"
	 width="218.488px" height="124.624px" viewBox="-23 -13 218.488 124.624" enable-background="new -23 -13 218.488 124.624"
	 xml:space="preserve">
<g>
	<g>
		<g>
			<path fill="#FFFFFF" d="M95.307,21.888c0-3.137,2.521-4.668,5.395-4.813v-4.67c-4.766,0.169-5.608,2.97-5.608,2.97v-2.94h-5.65
				v17.787h5.864V21.888z"/>
			<path fill="#FFFFFF" d="M51.694,30.365c1.169-0.336,2.205-0.846,3.112-1.538c0.905-0.692,1.626-1.567,2.163-2.628
				c0.535-1.062,0.805-2.32,0.805-3.773c0-1.263-0.251-2.32-0.752-3.165c-0.501-0.846-1.131-1.556-1.896-2.128
				c-0.761-0.57-1.607-1.03-2.537-1.376c-0.93-0.347-1.822-0.662-2.683-0.947c-0.595-0.192-1.132-0.378-1.608-0.554
				c-0.477-0.18-0.889-0.377-1.232-0.591c-0.348-0.217-0.609-0.468-0.789-0.751c-0.178-0.287-0.268-0.644-0.268-1.074
				c0-0.501,0.113-0.911,0.34-1.232c0.227-0.322,0.506-0.585,0.84-0.788c0.335-0.202,0.711-0.341,1.127-0.411
				c0.416-0.072,0.827-0.107,1.234-0.107c0.787,0,1.602,0.197,2.448,0.589c0.847,0.396,1.532,0.925,2.057,1.593l3.897-4.113
				c-1.12-1.026-2.425-1.797-3.914-2.321c-1.492-0.528-2.951-0.79-4.381-0.79c-1.192,0-2.373,0.15-3.541,0.447
				c-1.17,0.298-2.218,0.77-3.147,1.413s-1.681,1.467-2.253,2.468s-0.857,2.206-0.857,3.611c0,1.146,0.184,2.115,0.554,2.915
				c0.37,0.799,0.858,1.479,1.466,2.039c0.608,0.56,1.3,1.02,2.074,1.377c0.775,0.357,1.566,0.667,2.379,0.929
				c0.834,0.263,1.579,0.507,2.234,0.734c0.654,0.227,1.204,0.478,1.646,0.75c0.439,0.275,0.779,0.578,1.019,0.913
				c0.237,0.333,0.357,0.737,0.357,1.214c0,0.503-0.095,0.932-0.286,1.287c-0.191,0.356-0.447,0.646-0.77,0.86
				c-0.32,0.213-0.695,0.369-1.127,0.465c-0.429,0.095-0.87,0.143-1.322,0.143c-1.002,0-2.01-0.256-3.021-0.77
				c-1.014-0.515-1.83-1.151-2.451-1.911l-4.005,4.075c1.121,1.168,2.527,2.069,4.221,2.7c1.692,0.632,3.444,0.947,5.257,0.947
				C49.322,30.865,50.525,30.698,51.694,30.365"/>
			<path fill="#FFFFFF" d="M102.365,26.904c0.215,0.777,0.566,1.446,1.055,2.008c0.487,0.561,1.14,0.991,1.95,1.29
				c0.809,0.299,1.81,0.447,3.002,0.447c0.404,0,0.807-0.023,1.209-0.068h-0.001c1.023-0.065,2.474-0.428,3.807-0.831
				c-0.97-1.391-1.688-3.927-1.688-3.927c-0.217,0.094-0.483,0.165-0.804,0.214c-0.323,0.049-0.628,0.072-0.913,0.072
				c-0.836,0-1.412-0.209-1.735-0.627c-0.321-0.421-0.482-1.049-0.482-1.886v-6.822h3.776v-4.363h-3.776V7.728h-5.757l0.037,16.577
				C102.045,25.261,102.151,26.128,102.365,26.904"/>
			<path fill="#FFFFFF" d="M114.48,28.415c0.513,0.681,1.18,1.233,2.003,1.665c0.823,0.427,1.829,0.643,3.022,0.643
				c0.62,0,1.211-0.085,1.77-0.251c0.562-0.167,1.073-0.38,1.536-0.644c0.466-0.261,0.871-0.571,1.217-0.931
				c0.345-0.356,0.627-0.739,0.84-1.144h0.072v2.467h5.65v-17.81h-5.863v9.621c0,1.025-0.27,1.92-0.807,2.68
				c-0.536,0.767-1.318,1.146-2.341,1.146c-0.551,0-0.989-0.1-1.324-0.303c-0.334-0.204-0.602-0.483-0.804-0.844
				c-0.204-0.356-0.341-0.76-0.411-1.212c-0.073-0.455-0.108-0.933-0.108-1.434v-9.655h-5.9v11.015c0,0.908,0.113,1.793,0.339,2.665
				C113.598,26.961,113.967,27.736,114.48,28.415"/>
			<path fill="#FFFFFF" d="M138.296,28.145l0.071,0.11c0.547,0.763,1.311,1.364,2.288,1.808c0.978,0.438,2.013,0.66,3.11,0.66
				c1.335,0,2.527-0.265,3.576-0.787c1.05-0.523,1.938-1.224,2.666-2.092c0.725-0.87,1.28-1.876,1.663-3.021
				c0.381-1.146,0.569-2.336,0.569-3.576s-0.196-2.427-0.588-3.559c-0.395-1.132-0.955-2.127-1.681-2.987
				c-0.728-0.856-1.616-1.536-2.667-2.037c-1.048-0.502-2.214-0.751-3.504-0.751c-1.312,0-2.449,0.267-3.412,0.805
				c-0.969,0.535-1.724,1.162-2.273,1.877l-0.105,0.137v-2.319h-5.58v26.394h5.866V28.145z M138.384,19.602
				c0.203-0.549,0.488-1.04,0.857-1.47c0.371-0.427,0.817-0.771,1.343-1.034c0.524-0.263,1.121-0.393,1.787-0.393
				c0.69,0,1.299,0.13,1.824,0.393c0.523,0.264,0.959,0.603,1.307,1.018c0.345,0.418,0.606,0.9,0.786,1.45
				c0.179,0.548,0.267,1.108,0.267,1.681c0,0.571-0.088,1.138-0.267,1.699c-0.18,0.561-0.441,1.055-0.786,1.482
				c-0.348,0.432-0.783,0.776-1.307,1.039c-0.525,0.261-1.134,0.392-1.824,0.392c-0.666,0-1.263-0.131-1.787-0.392
				c-0.525-0.263-0.972-0.607-1.343-1.039c-0.369-0.428-0.654-0.916-0.857-1.465c-0.202-0.55-0.304-1.108-0.304-1.683
				C138.08,20.709,138.182,20.148,138.384,19.602"/>
			<path fill="#FFFFFF" d="M57.203,16.774h2.86v7.53c0,0.956,0.108,1.823,0.323,2.6c0.213,0.777,0.564,1.446,1.054,2.008
				c0.488,0.562,1.14,0.991,1.948,1.29c0.812,0.299,1.811,0.447,3.005,0.447c0.619,0,1.241-0.051,1.858-0.16
				c0.561-0.097,1.343-0.31,1.797-0.498c-0.738-1.1-1.269-2.44-1.609-3.9c-0.859,0.108-1.85-0.19-2.17-0.608
				c-0.322-0.421-0.484-1.049-0.484-1.886v-6.822h3.843v-4.363h-3.843V7.728h-5.757v4.684h-2.825V16.774z"/>
			<path fill="#FFFFFF" d="M77.422,19.278c-1.358,0.144-2.592,0.427-3.701,0.858c-1.107,0.429-2.016,1.038-2.719,1.823
				c-0.702,0.787-1.053,1.825-1.053,3.11c0,1.052,0.2,1.934,0.606,2.646c0.405,0.718,0.924,1.289,1.556,1.718
				c0.632,0.43,1.328,0.74,2.094,0.931c0.76,0.19,1.5,0.284,2.216,0.284c1.072,0,2.069-0.202,2.987-0.606
				c0.917-0.405,1.603-0.978,2.055-1.717h0.107v1.895h5.365v-8.975c0-1.621-0.152-3.023-0.448-4.201
				c-0.297-1.182-0.771-2.16-1.413-2.934c-0.644-0.774-1.483-1.348-2.521-1.716c-1.037-0.369-2.308-0.556-3.81-0.556
				c-1.453,0-2.877,0.25-4.272,0.751c-1.394,0.501-2.617,1.253-3.665,2.254l2.967,3.182c0.55-0.5,1.211-0.929,1.986-1.286
				c0.773-0.357,1.577-0.537,2.413-0.537c0.905,0,1.669,0.209,2.29,0.627c0.62,0.417,0.929,1.066,0.929,1.947v0.285
				C80.104,19.062,78.781,19.135,77.422,19.278 M81.571,22.461v0.607c0,1.12-0.316,2.01-0.947,2.665
				c-0.632,0.655-1.545,0.983-2.736,0.983c-0.286,0-0.584-0.029-0.894-0.088c-0.312-0.062-0.585-0.163-0.822-0.306
				c-0.239-0.144-0.437-0.335-0.592-0.573c-0.153-0.237-0.231-0.521-0.231-0.855c0-0.526,0.166-0.947,0.501-1.272
				c0.335-0.321,0.757-0.564,1.271-0.73c0.513-0.168,1.096-0.279,1.752-0.341c0.655-0.06,1.306-0.09,1.947-0.09H81.571z"/>
		</g>
		<g>
			<polygon fill="#FFFFFF" points="83.502,35.831 77.135,35.831 73.061,52.676 72.951,52.676 69.487,35.831 63.123,35.831 
				59.694,52.676 59.586,52.676 55.579,35.831 49.002,35.831 56.189,61.152 60.338,61.152 62.268,61.152 62.535,61.152 
				66.244,44.748 69.954,61.152 70.235,61.152 72.151,61.152 76.278,61.152 			"/>
			<path fill="#FFFFFF" d="M98.897,57.933l-4.075-2.573c-0.406,0.548-0.93,0.996-1.574,1.34c-0.646,0.348-1.431,0.519-2.359,0.519
				c-0.524,0-1.031-0.083-1.522-0.251c-0.486-0.168-0.93-0.398-1.321-0.697c-0.394-0.298-0.715-0.647-0.966-1.055
				c-0.25-0.404-0.398-0.858-0.447-1.357h12.91c0.022-0.216,0.037-0.442,0.037-0.679V52.46c0-1.521-0.221-2.884-0.663-4.075
				c-0.44-1.191-1.054-2.204-1.841-3.041c-0.789-0.833-1.729-1.47-2.826-1.912c-1.098-0.441-2.301-0.659-3.613-0.659
				c-1.356,0-2.621,0.224-3.788,0.678c-1.168,0.453-2.182,1.09-3.04,1.914c-0.856,0.822-1.537,1.822-2.039,3.002
				c-0.5,1.18-0.75,2.498-0.75,3.954c0,1.5,0.256,2.835,0.768,4.004c0.514,1.168,1.217,2.151,2.111,2.949
				c0.895,0.797,1.938,1.409,3.129,1.824c1.191,0.418,2.454,0.624,3.789,0.624c1.812,0,3.402-0.327,4.776-0.982
				C96.961,60.084,98.061,59.15,98.897,57.933 M86.989,48.902c0.216-0.415,0.501-0.78,0.859-1.09
				c0.357-0.31,0.773-0.555,1.252-0.733c0.476-0.179,1-0.269,1.572-0.269c1.17,0,2.045,0.334,2.629,1.002
				c0.584,0.669,0.877,1.467,0.877,2.395h-7.547C86.655,49.755,86.775,49.32,86.989,48.902"/>
			<path fill="#FFFFFF" d="M116.688,45.344c-0.789-0.833-1.729-1.47-2.824-1.912c-1.099-0.441-2.302-0.659-3.611-0.659
				c-1.361,0-2.623,0.224-3.791,0.678c-1.17,0.453-2.184,1.09-3.041,1.914c-0.858,0.822-1.537,1.822-2.039,3.002
				c-0.498,1.18-0.751,2.498-0.751,3.954c0,1.5,0.255,2.835,0.769,4.004c0.514,1.168,1.217,2.151,2.111,2.949
				c0.895,0.797,1.938,1.409,3.13,1.824c1.19,0.418,2.452,0.627,3.791,0.627c1.811,0,3.401-0.33,4.774-0.985
				c1.371-0.655,2.472-1.589,3.308-2.807l-4.079-2.573c-0.403,0.548-0.93,0.996-1.572,1.34c-0.643,0.345-1.43,0.519-2.361,0.519
				c-0.523,0-1.031-0.083-1.519-0.251c-0.489-0.168-0.929-0.398-1.323-0.697c-0.393-0.298-0.716-0.647-0.967-1.055
				c-0.249-0.404-0.399-0.858-0.446-1.357h12.91c0.022-0.216,0.035-0.442,0.035-0.679V52.46c0-1.521-0.22-2.884-0.662-4.075
				C118.088,47.193,117.475,46.181,116.688,45.344 M106.245,50.207c0.023-0.452,0.144-0.887,0.358-1.305
				c0.213-0.415,0.5-0.78,0.857-1.09s0.775-0.555,1.253-0.733c0.476-0.179,1.001-0.269,1.573-0.269c1.167,0,2.043,0.334,2.629,1.002
				c0.582,0.669,0.875,1.467,0.875,2.395H106.245z"/>
			<path fill="#FFFFFF" d="M153.199,45.344c-0.787-0.833-1.73-1.47-2.824-1.912c-1.099-0.441-2.303-0.659-3.613-0.659
				c-1.359,0-2.624,0.224-3.793,0.678c-1.166,0.453-2.178,1.09-3.037,1.914c-0.856,0.822-1.537,1.822-2.04,3.002
				c-0.497,1.18-0.749,2.498-0.749,3.954c0,1.5,0.255,2.835,0.77,4.004c0.513,1.168,1.215,2.151,2.109,2.949
				c0.893,0.797,1.936,1.409,3.128,1.824c1.192,0.418,2.456,0.627,3.791,0.627c1.812,0,3.402-0.33,4.774-0.985
				s2.474-1.589,3.309-2.807l-4.077-2.573c-0.406,0.548-0.929,0.996-1.571,1.34c-0.646,0.345-1.433,0.519-2.362,0.519
				c-0.524,0-1.03-0.083-1.519-0.251c-0.49-0.168-0.932-0.398-1.324-0.697c-0.395-0.298-0.716-0.647-0.967-1.055
				c-0.249-0.404-0.398-0.858-0.445-1.357h12.909c0.023-0.216,0.034-0.442,0.034-0.679V52.46c0-1.521-0.219-2.884-0.661-4.075
				S153.987,46.181,153.199,45.344 M142.758,50.207c0.022-0.452,0.143-0.887,0.357-1.305c0.213-0.415,0.499-0.78,0.857-1.09
				c0.356-0.31,0.775-0.555,1.251-0.733c0.478-0.179,1.004-0.269,1.575-0.269c1.166,0,2.043,0.334,2.627,1.002
				c0.584,0.669,0.875,1.467,0.875,2.395H142.758z"/>
			<path fill="#FFFFFF" d="M173.127,45.146c-0.51-0.678-1.183-1.232-2.018-1.659c-0.834-0.432-1.849-0.647-3.039-0.647
				c-0.621,0-1.205,0.085-1.754,0.252c-0.547,0.166-1.055,0.382-1.52,0.646c-0.465,0.263-0.87,0.576-1.217,0.945
				c-0.346,0.371-0.626,0.747-0.84,1.128l-0.072,0.124v-2.592h-5.686v17.81h5.902v-9.655c0-0.503,0.064-0.985,0.194-1.449
				c0.13-0.466,0.33-0.876,0.591-1.235c0.262-0.355,0.592-0.635,0.984-0.838c0.394-0.203,0.852-0.305,1.377-0.305
				c0.521,0,0.959,0.102,1.303,0.305c0.348,0.203,0.615,0.476,0.807,0.822c0.189,0.345,0.328,0.746,0.412,1.196
				c0.08,0.456,0.126,0.933,0.126,1.432v9.728h5.899V50.137c0-0.882-0.115-1.765-0.34-2.646
				C174.011,46.61,173.642,45.827,173.127,45.146"/>
			<path fill="#FFFFFF" d="M189.625,34.115v11.222l-0.072-0.1c-0.5-0.598-1.203-1.144-2.108-1.644
				c-0.909-0.502-2.016-0.754-3.329-0.754c-1.285,0-2.447,0.252-3.484,0.754c-1.037,0.5-1.919,1.177-2.646,2.037
				c-0.728,0.859-1.288,1.854-1.683,2.986c-0.391,1.133-0.589,2.321-0.589,3.558c0,1.24,0.188,2.432,0.573,3.577
				c0.381,1.146,0.934,2.152,1.662,3.021c0.727,0.87,1.615,1.57,2.662,2.091c1.05,0.524,2.242,0.788,3.576,0.788
				c1.191,0,2.318-0.246,3.383-0.731c1.058-0.49,1.875-1.188,2.447-2.092l0.072-0.139v2.462h5.398V34.115H189.625z M189.572,53.892
				c-0.204,0.549-0.489,1.038-0.86,1.468c-0.369,0.429-0.815,0.774-1.339,1.035c-0.526,0.262-1.12,0.393-1.79,0.393
				c-0.69,0-1.299-0.131-1.822-0.393c-0.523-0.261-0.966-0.606-1.322-1.035c-0.358-0.43-0.627-0.925-0.805-1.487
				c-0.182-0.558-0.269-1.125-0.269-1.697c0-0.571,0.087-1.131,0.269-1.678c0.178-0.549,0.446-1.032,0.805-1.45
				c0.356-0.415,0.799-0.757,1.322-1.02s1.132-0.394,1.822-0.394c0.67,0,1.264,0.131,1.79,0.394c0.523,0.263,0.97,0.607,1.339,1.037
				c0.371,0.427,0.656,0.918,0.86,1.465c0.202,0.551,0.304,1.111,0.304,1.683S189.774,53.344,189.572,53.892"/>
			<polygon fill="#FFFFFF" points="131.825,51.388 138.693,43.343 131.574,43.343 126.63,49.624 126.63,36.746 126.63,35.831 
				120.729,35.831 120.729,61.152 126.63,61.152 126.63,53.691 131.717,61.152 138.978,61.152 			"/>
		</g>
		<g>
			<path fill="#FFFFFF" d="M7.787-1.549c3.164,0,5.727-2.564,5.727-5.726c0-3.163-2.562-5.726-5.727-5.726
				c-3.162,0-5.727,2.562-5.727,5.726C2.061-4.113,4.625-1.549,7.787-1.549"/>
			<path fill="#FFFFFF" d="M17.237,5.256c2.498,0,4.523-2.026,4.523-4.523c0-2.498-2.025-4.525-4.523-4.525
				c-2.5,0-4.523,2.027-4.523,4.525C12.713,3.229,14.737,5.256,17.237,5.256"/>
			<path fill="#FFFFFF" d="M43.467,57.159L25.258,28.224v-4.919c1.197-1.284,4.248-4.08,5.01-8.738v0.002
				c0.141-1.335,0.272-3.535-3.105-5.17c0,0,0.002,0,0.009-0.003c-0.866-0.437-1.902-0.83-3.099-1.179
				c-3.346-0.976-7.717-1.528-12.373-1.581c-1.554,1.448-3.555,1.398-3.084,1.22c0.485-0.184,1.143-0.772,1.491-1.309
				c0.372-0.574,0.59-1.257,0.59-1.991c0-2.028-1.642-3.674-3.671-3.674c-2.028,0-3.671,1.646-3.671,3.674
				c0,0.94,0.354,1.796,0.933,2.444C1.942,7.269-0.218,7.68-2.063,8.217c-1.199,0.349-2.237,0.744-3.103,1.18
				C-5.162,9.398-5.16,9.398-5.16,9.398c-0.145,0.07-0.281,0.141-0.414,0.214c-0.232,0.127-0.451,0.262-0.654,0.396
				c-2.189,1.48-2.166,3.243-2.053,4.418c0.725,4.724,3.822,7.579,5.033,8.878v4.919l-18.201,28.924l-0.016,0.022
				C-22.469,58.838-23,60.751-23,62.707c0,2.42,0.829,4.795,2.333,6.683c0.221,0.281,2.225,2.722,6.99,5.096
				c2.839,1.41,6.112,2.533,9.73,3.336c4.479,0.991,9.51,1.495,14.951,1.495s10.471-0.504,14.95-1.495
				c3.618-0.803,6.892-1.926,9.73-3.336c4.771-2.374,6.773-4.82,6.992-5.096c1.504-1.892,2.332-4.263,2.332-6.683
				c0-1.956-0.53-3.869-1.534-5.537L43.467,57.159z M-5.204,13.597L-5.204,13.597l0.002-0.001c-0.097-0.142-0.089-0.324,0-0.434
				l-0.002-0.002c0.06-0.073,0.149-0.165,0.263-0.264c0.191-0.165,0.459-0.361,0.855-0.582c0.627-0.348,1.549-0.745,2.884-1.135
				c3.239-0.942,7.574-1.465,12.204-1.465h0.003c4.63,0,8.966,0.522,12.204,1.465c1.335,0.39,2.26,0.787,2.885,1.135
				c0.396,0.221,0.664,0.417,0.856,0.582c0.11,0.099,0.204,0.19,0.263,0.264l-0.002,0.002c0.088,0.109,0.095,0.292,0,0.434h0.002
				v0.001c-0.242,0.305-0.923,0.86-2.461,1.461h0.003c-0.108,0.042-0.237,0.086-0.353,0.127c-0.108,0.039-0.208,0.078-0.321,0.117
				c-0.271,0.092-0.559,0.183-0.872,0.273c-0.008,0-0.016,0.003-0.021,0.006c-2.012-0.898-6.27-1.941-12.254-1.941
				c-5.932,0-10.164,1.026-12.194,1.916c-0.289-0.083-0.56-0.169-0.811-0.254c-0.114-0.039-0.216-0.078-0.322-0.116
				c-0.116-0.042-0.245-0.086-0.354-0.128c0.003,0,0.004,0,0.004,0C-4.281,14.457-4.961,13.901-5.204,13.597 M40.264,67.472
				l-0.023,0.03c-0.014,0.02-1.674,2.107-5.926,4.223c-2.616,1.3-5.652,2.338-9.025,3.088c-4.26,0.942-9.066,1.422-14.284,1.422
				c-5.135,0-9.872-0.464-14.08-1.382c-3.349-0.724-6.373-1.737-8.987-3.012c-4.315-2.099-6.07-4.219-6.17-4.343l-0.02-0.026
				c-1.091-1.365-1.666-3.012-1.666-4.765c0-1.389,0.374-2.749,1.086-3.932l18.666-29.664v-7.098l-0.48-0.455
				c-0.028-0.026-1.889-0.959-3.262-3.643c0.564,0.222,1.179,0.432,1.845,0.622c3.51,1.024,8.151,1.585,13.065,1.585
				c4.918,0,9.559-0.561,13.07-1.585c0.664-0.19,1.277-0.4,1.84-0.617c-1.374,2.674-3.229,3.613-3.256,3.638l-0.48,0.455v7.098
				l18.667,29.664c0.71,1.183,1.086,2.543,1.086,3.932C41.929,64.46,41.354,66.106,40.264,67.472"/>
			<g>
				<path fill="#FFFFFF" d="M-0.896,47.169c0-0.462-0.373-0.835-0.832-0.835c-0.46,0-0.833,0.373-0.833,0.835
					c0,0.46,0.373,0.612,0.833,0.612C-1.269,47.781-0.896,47.629-0.896,47.169z"/>
				<path fill="#FFFFFF" d="M13.288,51.209c0.124-0.059,0.251-0.111,0.385-0.158c0.803-0.286,1.612-0.294,2.253-0.078
					c0.006-0.049,0.012-0.103,0.012-0.159c0-0.75-0.611-1.359-1.361-1.359c-0.751,0-1.36,0.609-1.36,1.359
					C13.216,50.966,13.242,51.096,13.288,51.209z"/>
				<path fill="#FFFFFF" d="M13.902,48.806c0.15-0.079,0.307-0.143,0.466-0.185c0.157-0.041,0.316-0.061,0.471-0.056
					s0.305,0.034,0.447,0.083l0.16-0.699c-0.218-0.032-0.439-0.034-0.655-0.002c-0.212,0.032-0.416,0.097-0.604,0.184
					c-0.192,0.088-0.363,0.196-0.521,0.32c-0.078,0.062-0.153,0.126-0.224,0.197c-0.071,0.07-0.138,0.14-0.205,0.225l0.246,0.22
					c0.057-0.049,0.13-0.107,0.201-0.152C13.752,48.892,13.827,48.848,13.902,48.806z"/>
				<path fill="#FFFFFF" d="M18.022,50.813c0,0.057,0.002,0.11,0.013,0.159c0.637-0.216,1.447-0.208,2.251,0.078
					c0.133,0.047,0.261,0.1,0.383,0.158c0.047-0.113,0.074-0.243,0.074-0.396c0-0.75-0.609-1.359-1.361-1.359
					C18.631,49.454,18.022,50.063,18.022,50.813z"/>
				<path fill="#FFFFFF" d="M19.59,48.621c0.158,0.042,0.316,0.105,0.465,0.185c0.076,0.042,0.148,0.086,0.221,0.135
					c0.069,0.045,0.143,0.104,0.2,0.152l0.246-0.22c-0.069-0.085-0.133-0.154-0.206-0.225c-0.07-0.071-0.146-0.135-0.225-0.197
					c-0.156-0.124-0.33-0.232-0.518-0.32c-0.187-0.087-0.395-0.151-0.607-0.184c-0.215-0.032-0.436-0.03-0.654,0.002l0.16,0.699
					c0.145-0.049,0.293-0.078,0.447-0.083C19.276,48.561,19.433,48.58,19.59,48.621z"/>
				<path fill="#FFFFFF" d="M17.744,54.421c-0.232,0.048-0.48,0.072-0.739,0.072c-0.26,0-0.508-0.024-0.74-0.072
					c-0.167,1.192-1.311,2.114-2.694,2.114c-0.478,0-0.928-0.109-1.315-0.302c0.374,1,1.322,1.709,2.429,1.709
					c1.014,0,1.89-0.589,2.321-1.453c0.432,0.864,1.309,1.453,2.317,1.453c1.111,0,2.056-0.709,2.432-1.709
					c-0.391,0.192-0.837,0.302-1.314,0.302C19.055,56.535,17.912,55.613,17.744,54.421z"/>
				<path fill="#FFFFFF" d="M17.704,57.822c-0.647,0.638-1.333,0.059-1.41-0.012c-0.123-0.108-0.312-0.101-0.423,0.021
					c-0.112,0.123-0.105,0.313,0.017,0.426c0.03,0.025,0.301,0.264,0.698,0.391c0.137,0.043,0.298,0.074,0.471,0.074
					c0.328,0,0.705-0.112,1.07-0.474c0.118-0.116,0.121-0.307,0.003-0.423C18.014,57.706,17.824,57.706,17.704,57.822z"/>
				<path fill="#FFFFFF" d="M7.439,59.532c0,0-0.848,0.075-1.739,0.075s-1.723-0.076-1.723-0.076
					c-0.159-0.004-0.312,0.096-0.365,0.255c-0.068,0.195,0.037,0.41,0.233,0.478c0,0,0.868,0.29,1.854,0.29
					c0.988,0,1.864-0.293,1.864-0.293c0.153-0.049,0.261-0.195,0.258-0.364C7.815,59.691,7.644,59.527,7.439,59.532z"/>
				<path fill="#FFFFFF" d="M7.463,56.037c-0.562,0-1.02,0.457-1.02,1.019c0,0.563,0.457,0.75,1.02,0.75
					c0.563,0,1.019-0.187,1.019-0.75C8.482,56.494,8.027,56.037,7.463,56.037z"/>
				<path fill="#FFFFFF" d="M4.967,57.056c0-0.562-0.456-1.019-1.02-1.019c-0.561,0-1.02,0.457-1.02,1.019
					c0,0.563,0.459,0.75,1.02,0.75C4.511,57.806,4.967,57.619,4.967,57.056z"/>
				<path fill="#FFFFFF" d="M-3.726,62.056c0,0-0.846,0.077-1.736,0.077c-0.892,0-1.723-0.077-1.723-0.077
					c-0.161-0.004-0.312,0.095-0.367,0.254c-0.068,0.196,0.037,0.411,0.234,0.479c0,0,0.867,0.288,1.855,0.288
					c0.987,0,1.863-0.291,1.863-0.291c0.151-0.051,0.26-0.196,0.256-0.364C-3.347,62.215-3.52,62.052-3.726,62.056z"/>
				<path fill="#FFFFFF" d="M-3.701,58.561c-0.562,0-1.02,0.457-1.02,1.021c0,0.562,0.457,0.748,1.02,0.748s1.02-0.187,1.02-0.748
					C-2.681,59.018-3.138,58.561-3.701,58.561z"/>
				<path fill="#FFFFFF" d="M-6.197,59.581c0-0.563-0.456-1.021-1.02-1.021c-0.562,0-1.018,0.457-1.018,1.021
					c0,0.562,0.455,0.748,1.018,0.748C-6.653,60.329-6.197,60.143-6.197,59.581z"/>
				<path fill="#FFFFFF" d="M1.123,49.192c0,0-0.691,0.062-1.42,0.062c-0.729,0-1.409-0.063-1.409-0.063
					c-0.13-0.001-0.254,0.079-0.298,0.209c-0.055,0.159,0.029,0.335,0.191,0.39c0,0,0.709,0.238,1.516,0.238
					c0.808,0,1.524-0.239,1.524-0.239c0.124-0.041,0.212-0.159,0.208-0.298C1.433,49.322,1.292,49.189,1.123,49.192z"/>
				<path fill="#FFFFFF" d="M1.145,46.334c-0.46,0-0.832,0.373-0.832,0.835c0,0.46,0.372,0.612,0.832,0.612
					c0.459,0,0.834-0.152,0.834-0.612C1.979,46.707,1.604,46.334,1.145,46.334z"/>
				<path fill="#FFFFFF" d="M30.502,59.185c0,0-0.846,0.075-1.738,0.075c-0.891,0-1.723-0.077-1.723-0.077
					c-0.16-0.003-0.311,0.096-0.366,0.255c-0.067,0.197,0.038,0.41,0.235,0.478c0,0,0.866,0.291,1.854,0.291
					c0.988,0,1.865-0.292,1.865-0.292c0.152-0.05,0.26-0.195,0.256-0.365C30.879,59.343,30.708,59.18,30.502,59.185z"/>
				<path fill="#FFFFFF" d="M30.53,55.688c-0.564,0-1.021,0.457-1.021,1.019c0,0.565,0.456,0.751,1.021,0.751
					c0.561,0,1.018-0.186,1.018-0.751C31.547,56.146,31.09,55.688,30.53,55.688z"/>
				<path fill="#FFFFFF" d="M28.031,56.707c0-0.562-0.457-1.019-1.018-1.019c-0.564,0-1.021,0.457-1.021,1.019
					c0,0.565,0.457,0.751,1.021,0.751C27.574,57.458,28.031,57.272,28.031,56.707z"/>
				<path fill="#FFFFFF" d="M32.965,52.459c-0.219-0.256-0.438-0.5-0.698-0.715c-0.003,0-0.016-0.003-0.016-0.005
					c-0.285-0.235-0.6-0.444-0.93-0.62c-0.004-0.002-0.011-0.005-0.011-0.005c-0.452-0.24-0.935-0.42-1.447-0.532
					c-0.086-0.02-0.171-0.039-0.26-0.055c-0.058-0.009-0.12-0.019-0.176-0.026c-0.152-0.021-0.306,0.078-0.462,0.07
					c0.896-0.469,1.416-1.617,1.416-1.617h-0.006c0.03,0,0.066-0.223,0.094-0.276c0.028-0.051,0.059-0.161,0.083-0.212
					c0.028-0.055,0.05-0.139,0.074-0.194c0.028-0.066,0.057-0.15,0.082-0.216c0.018-0.049,0.033-0.104,0.049-0.154
					c0.021-0.075,0.042-0.153,0.059-0.224c0.007-0.039,0.018-0.08,0.021-0.116c0.02-0.111,0.031-0.221,0.031-0.326
					c0-0.962-0.82-2.338-4.325-3.449c-0.287-0.092-0.569-0.176-0.874-0.258c-0.148-0.188-0.298-0.364-0.467-0.54
					c-0.426-0.734-0.716-1.539-0.868-2.372l-0.028,0.012c0,0-0.43-3.069-0.979-4.342c-0.017-0.028-0.046-0.059-0.062-0.086
					c-0.033-0.058-0.068-0.114-0.102-0.171c-0.02-0.034-0.042-0.069-0.064-0.105c-0.029-0.051-0.062-0.104-0.096-0.157
					c-0.021-0.039-0.048-0.079-0.072-0.118c-0.031-0.05-0.061-0.099-0.093-0.147c-0.028-0.044-0.058-0.09-0.089-0.132
					c-0.027-0.045-0.058-0.091-0.088-0.135c-0.033-0.049-0.068-0.097-0.103-0.146c-0.027-0.041-0.056-0.08-0.085-0.122
					c-0.039-0.051-0.079-0.104-0.118-0.154c-0.026-0.037-0.054-0.074-0.081-0.11c-0.043-0.054-0.087-0.107-0.131-0.161
					c-0.027-0.034-0.053-0.068-0.08-0.102c-0.047-0.055-0.094-0.109-0.141-0.163c-0.027-0.033-0.053-0.063-0.08-0.094
					c-0.051-0.057-0.103-0.111-0.152-0.166c-0.026-0.03-0.053-0.06-0.08-0.087c-0.053-0.055-0.107-0.11-0.162-0.165
					c-0.024-0.025-0.052-0.054-0.08-0.08c-0.055-0.055-0.111-0.106-0.17-0.159c-0.025-0.025-0.053-0.052-0.082-0.075
					c-0.058-0.055-0.119-0.105-0.179-0.156c-0.027-0.023-0.054-0.047-0.081-0.071c-0.062-0.05-0.125-0.099-0.188-0.146
					c-0.027-0.022-0.055-0.045-0.082-0.067c-0.064-0.047-0.129-0.091-0.194-0.137c-0.028-0.021-0.058-0.042-0.087-0.062
					c-0.064-0.046-0.131-0.086-0.195-0.127c-0.032-0.021-0.062-0.041-0.094-0.059c-0.065-0.041-0.135-0.078-0.202-0.115
					c-0.031-0.02-0.063-0.038-0.097-0.056c-0.066-0.036-0.135-0.068-0.205-0.102c-0.033-0.016-0.066-0.034-0.1-0.051
					c-0.068-0.03-0.136-0.058-0.204-0.085c-0.036-0.015-0.073-0.031-0.11-0.047c-0.068-0.024-0.137-0.049-0.203-0.07
					c-0.041-0.014-0.08-0.028-0.119-0.041c-0.068-0.021-0.139-0.037-0.209-0.057c-0.04-0.01-0.08-0.021-0.121-0.032
					c-0.07-0.017-0.145-0.029-0.217-0.043c-0.039-0.008-0.079-0.017-0.119-0.023c-0.074-0.012-0.148-0.019-0.223-0.025
					c-0.042-0.005-0.083-0.011-0.122-0.016c-0.071-0.006-0.144-0.007-0.214-0.008c-2.949-0.429-5.35,1.925-6.457,3.27
					c0.176-0.717,0.534-1.787,1.685-2.664c1.06-0.809,2.419-1.407,2.419-1.407v-7.459c-1,0.161-2.957,0.244-4.842,0.244
					c-3.117,0-5.798-0.229-8.472-0.658c0,6.61,0.135,8.227,0.135,8.227l-15.94,25.406c-1,1.688-1.777,3.604-1.779,5.365
					c0,0.981,0.282,1.912,0.901,2.731c0,0,0.727,0.927,0.945,1.073c1.062,0.708,2.053,0.806,4.053,2.188c0,0,0-7.544,0-8.521
					c0-2.39,2.237-4.326,4.623-4.326c2.391,0,4.477,1.937,4.477,4.326l0.113,9.493c1.25,0.044,0.787,0.086,2.787,0.126v-8.932
					c0-0.034,0-0.066,0-0.1v-3.674c0-2.284,1.717-4.141,4-4.141s4,1.856,4,4.141v13.222c0,0.012,2,0.02,2,0.024V56.563
					c0-0.623,0-1.218,0-1.78v-3.63l-0.475,0.005c1.035-1.461,0.586-4.584,0.491-5.552c1.025,0.3,1.68,0.41,2.362,0.876
					c0.619,0.427,1.399,0.471,2.413,0.471h0.017h0.015c1.015,0,1.912-0.044,2.533-0.471c0.73-0.5,1.564-0.747,2.701-1.06
					c0.009-0.001,0.197,0.056,0.206,0.054c-0.086,0.832-1.261,3.83,0.739,5.415v3.555c0,0.559,0,1.151,0,1.768V69.15
					c0-0.088,1-0.187,1-0.295V56.214c0-2.282,2.219-4.14,4.5-4.14c2.282,0,4.5,1.857,4.5,4.14V66.61c1-0.173,1-0.353,1-0.543v-7.57
					C34.198,54.508,33.258,52.873,32.965,52.459z M10.906,39.253c0-0.122-0.004-0.264-0.007-0.4
					c-0.006-0.194-0.011-0.392-0.007-0.544c0.032-1.009,3.187-5.488,6.522-5.495c3.161,0.005,5.471,4.27,5.645,5.5
					c-0.01,0.27-0.011,0.612-0.011,0.939c0,0.816,0.175,1.612,0.448,2.368c-1.75-1.086-4.015-1.742-6.491-1.742
					c-2.508,0-4.798,0.672-6.558,1.781C10.725,40.889,10.906,40.078,10.906,39.253z M3.198,51.637c-3,0.978-3.258,2.699-3.34,4.683
					c-1.035-1.069-1.66-1.739-4.66-1.761v-7.795c0-1.791,2.148-3.305,4-3.305s4,1.514,4,3.305V51.637z M10.198,52.324
					c0-0.149-0.742-0.297-1.039-0.441c-0.371-0.266-0.792-0.494-1.219-0.669c-2.318-1.488-3.657-3.117-3.657-3.979
					c0-0.593,0.522-1.216,1.607-1.776c0.119,0.807,1.555,1.505,3.765,2.076c0.153,0.04,0.542,0.079,0.542,0.115V52.324z
					 M21.999,44.613c-1.247,0.345-2.168,0.749-2.991,1.314c-0.461,0.314-1.189,0.51-2.003,0.537
					c-0.813-0.027-1.544-0.223-2.003-0.537c-0.824-0.565-1.746-0.97-2.993-1.314c-0.888-0.243-1.553-0.393-2.104-0.467
					c2.095-0.43,4.538-0.659,7.101-0.659c2.651,0,5.177,0.247,7.319,0.704C23.757,44.194,23.059,44.321,21.999,44.613z
					 M27.381,50.584c-1.23,0.281-2.182,0.95-3.182,1.87v-4.733c0-0.059,0.368-0.12,0.625-0.186c2.204-0.571,3.276-1.27,3.393-2.078
					c1.084,0.562,1.765,1.186,1.765,1.778C29.981,47.977,29.09,49.285,27.381,50.584z"/>
			</g>
		</g>
		<g>
			<g>
				<g>
					<path fill="#FFFFFF" d="M131.963,72.223h-1.156v4.012h-0.688v-4.012h-0.813v-0.312l0.813-0.247v-0.255
						c0-1.117,0.488-1.676,1.464-1.676c0.241,0,0.523,0.048,0.848,0.146l-0.18,0.551c-0.264-0.086-0.492-0.13-0.68-0.13
						c-0.261,0-0.453,0.089-0.576,0.262c-0.127,0.171-0.188,0.449-0.188,0.831v0.296h1.156V72.223z"/>
					<path fill="#FFFFFF" d="M136.407,73.954c0,0.743-0.188,1.322-0.56,1.739c-0.373,0.416-0.89,0.624-1.548,0.624
						c-0.407,0-0.767-0.097-1.084-0.288c-0.312-0.189-0.558-0.465-0.728-0.821c-0.172-0.355-0.259-0.773-0.259-1.254
						c0-0.739,0.187-1.317,0.556-1.729c0.371-0.414,0.886-0.62,1.543-0.62c0.637,0,1.145,0.212,1.518,0.633
						C136.219,72.662,136.407,73.234,136.407,73.954z M132.944,73.954c0,0.582,0.117,1.026,0.35,1.329
						c0.231,0.304,0.572,0.456,1.023,0.456c0.449,0,0.794-0.15,1.027-0.452c0.234-0.305,0.35-0.747,0.35-1.333
						c0-0.575-0.115-1.016-0.35-1.316c-0.233-0.3-0.579-0.448-1.036-0.448c-0.451,0-0.79,0.148-1.02,0.443
						C133.058,72.928,132.944,73.37,132.944,73.954z"/>
					<path fill="#FFFFFF" d="M139.388,71.604c0.203,0,0.384,0.017,0.544,0.05l-0.095,0.639c-0.188-0.042-0.354-0.062-0.497-0.062
						c-0.369,0-0.684,0.147-0.945,0.446c-0.26,0.3-0.393,0.671-0.393,1.119v2.438h-0.688v-4.546h0.568l0.078,0.841h0.033
						c0.171-0.295,0.373-0.523,0.61-0.685S139.106,71.604,139.388,71.604z"/>
					<path fill="#FFFFFF" d="M146.304,76.234h-3.38v-6.066h3.38v0.627h-2.675v1.956h2.514v0.619h-2.514v2.233h2.675V76.234z"/>
					<path fill="#FFFFFF" d="M150.262,76.234v-2.942c0-0.368-0.086-0.648-0.254-0.829s-0.433-0.273-0.793-0.273
						c-0.475,0-0.823,0.128-1.045,0.386c-0.223,0.258-0.333,0.68-0.333,1.273v2.386h-0.687v-4.546h0.559l0.112,0.619h0.034
						c0.14-0.223,0.338-0.396,0.592-0.521c0.256-0.12,0.539-0.183,0.852-0.183c0.548,0,0.96,0.132,1.235,0.396
						c0.277,0.264,0.413,0.686,0.413,1.267v2.967H150.262z"/>
					<path fill="#FFFFFF" d="M153.551,75.749c0.123,0,0.238-0.01,0.354-0.026c0.111-0.02,0.203-0.038,0.268-0.057v0.525
						c-0.074,0.038-0.185,0.065-0.329,0.089c-0.146,0.025-0.276,0.037-0.394,0.037c-0.879,0-1.318-0.462-1.318-1.391v-2.704h-0.651
						V71.89l0.651-0.285l0.291-0.972h0.398v1.056h1.318v0.534h-1.318v2.675c0,0.274,0.064,0.483,0.195,0.631
						C153.147,75.675,153.326,75.749,153.551,75.749z"/>
					<path fill="#FFFFFF" d="M156.922,71.604c0.203,0,0.384,0.017,0.543,0.05l-0.095,0.639c-0.188-0.042-0.354-0.062-0.498-0.062
						c-0.367,0-0.681,0.147-0.942,0.446c-0.263,0.3-0.395,0.671-0.395,1.119v2.438h-0.688v-4.546h0.57l0.077,0.841h0.034
						c0.167-0.295,0.369-0.523,0.609-0.685C156.377,71.684,156.639,71.604,156.922,71.604z"/>
					<path fill="#FFFFFF" d="M159.891,76.317c-0.672,0-1.201-0.206-1.592-0.614c-0.388-0.407-0.582-0.979-0.582-1.707
						c0-0.73,0.182-1.312,0.543-1.745c0.359-0.432,0.846-0.646,1.453-0.646c0.569,0,1.02,0.186,1.354,0.561
						c0.329,0.376,0.496,0.87,0.496,1.484v0.435h-3.133c0.016,0.535,0.148,0.941,0.404,1.218c0.258,0.275,0.617,0.413,1.082,0.413
						c0.489,0,0.975-0.102,1.451-0.308v0.616c-0.242,0.105-0.472,0.179-0.688,0.225C160.46,76.293,160.198,76.317,159.891,76.317z
						 M159.705,72.18c-0.366,0-0.657,0.12-0.873,0.358c-0.218,0.239-0.345,0.567-0.386,0.985h2.38c0-0.432-0.1-0.766-0.292-0.997
						C160.341,72.297,160.065,72.18,159.705,72.18z"/>
					<path fill="#FFFFFF" d="M164.557,76.317c-0.295,0-0.566-0.056-0.811-0.165c-0.244-0.108-0.45-0.276-0.616-0.504h-0.051
						c0.034,0.266,0.051,0.519,0.051,0.754v1.874h-0.689v-6.588h0.562l0.096,0.619h0.032c0.177-0.247,0.382-0.427,0.618-0.538
						s0.504-0.165,0.809-0.165c0.604,0,1.067,0.205,1.395,0.618c0.329,0.41,0.494,0.988,0.494,1.731c0,0.75-0.167,1.329-0.501,1.742
						C165.612,76.11,165.149,76.317,164.557,76.317z M164.459,72.189c-0.466,0-0.802,0.128-1.008,0.386
						c-0.211,0.258-0.314,0.668-0.321,1.227v0.152c0,0.642,0.104,1.098,0.321,1.374c0.212,0.275,0.553,0.411,1.021,0.411
						c0.394,0,0.701-0.158,0.925-0.477c0.222-0.317,0.335-0.757,0.335-1.315c0-0.566-0.113-1-0.335-1.304
						C165.174,72.341,164.861,72.189,164.459,72.189z"/>
					<path fill="#FFFFFF" d="M169.428,71.604c0.202,0,0.383,0.017,0.543,0.05l-0.096,0.639c-0.189-0.042-0.354-0.062-0.497-0.062
						c-0.367,0-0.683,0.147-0.944,0.446c-0.261,0.3-0.39,0.671-0.39,1.119v2.438h-0.69v-4.546h0.567l0.081,0.841h0.033
						c0.168-0.295,0.37-0.523,0.61-0.685C168.881,71.684,169.143,71.604,169.428,71.604z"/>
					<path fill="#FFFFFF" d="M172.397,76.317c-0.672,0-1.202-0.206-1.592-0.614c-0.39-0.407-0.583-0.979-0.583-1.707
						c0-0.73,0.184-1.312,0.542-1.745c0.36-0.432,0.846-0.646,1.453-0.646c0.57,0,1.021,0.186,1.355,0.561
						c0.33,0.376,0.494,0.87,0.494,1.484v0.435h-3.131c0.016,0.535,0.15,0.941,0.405,1.218c0.257,0.275,0.616,0.413,1.081,0.413
						c0.489,0,0.973-0.102,1.451-0.308v0.616c-0.242,0.105-0.475,0.179-0.691,0.225C172.965,76.293,172.703,76.317,172.397,76.317z
						 M172.211,72.18c-0.366,0-0.657,0.12-0.873,0.358c-0.219,0.239-0.347,0.567-0.387,0.985h2.38c0-0.432-0.101-0.766-0.292-0.997
						C172.845,72.297,172.571,72.18,172.211,72.18z"/>
					<path fill="#FFFFFF" d="M178.059,76.234v-2.942c0-0.368-0.085-0.648-0.255-0.829c-0.167-0.181-0.432-0.273-0.791-0.273
						c-0.475,0-0.825,0.128-1.044,0.386c-0.224,0.258-0.334,0.68-0.334,1.273v2.386h-0.688v-4.546h0.561l0.11,0.619h0.033
						c0.142-0.223,0.341-0.396,0.595-0.521c0.254-0.12,0.538-0.183,0.851-0.183c0.548,0,0.959,0.132,1.235,0.396
						c0.277,0.264,0.415,0.686,0.415,1.267v2.967H178.059z"/>
					<path fill="#FFFFFF" d="M181.791,76.317c-0.672,0-1.201-0.206-1.59-0.614c-0.389-0.407-0.582-0.979-0.582-1.707
						c0-0.73,0.18-1.312,0.541-1.745c0.361-0.432,0.848-0.646,1.455-0.646c0.566,0,1.018,0.186,1.353,0.561
						c0.33,0.376,0.495,0.87,0.495,1.484v0.435h-3.131c0.014,0.535,0.147,0.941,0.402,1.218c0.258,0.275,0.617,0.413,1.084,0.413
						c0.488,0,0.972-0.102,1.45-0.308v0.616c-0.244,0.105-0.475,0.179-0.69,0.225C182.363,76.293,182.1,76.317,181.791,76.317z
						 M181.607,72.18c-0.366,0-0.657,0.12-0.874,0.358c-0.217,0.239-0.345,0.567-0.384,0.985h2.378c0-0.432-0.098-0.766-0.291-0.997
						C182.242,72.297,181.965,72.18,181.607,72.18z"/>
					<path fill="#FFFFFF" d="M184.981,71.688v2.947c0,0.37,0.085,0.647,0.254,0.831c0.168,0.182,0.432,0.272,0.793,0.272
						c0.475,0,0.822-0.129,1.041-0.392c0.222-0.257,0.33-0.683,0.33-1.271v-2.388h0.688v4.546h-0.566l-0.101-0.61h-0.035
						c-0.145,0.222-0.339,0.396-0.588,0.514c-0.254,0.119-0.538,0.18-0.858,0.18c-0.552,0-0.966-0.132-1.242-0.396
						c-0.274-0.262-0.411-0.684-0.411-1.26v-2.974H184.981z"/>
					<path fill="#FFFFFF" d="M191.289,71.604c0.201,0,0.384,0.017,0.544,0.05l-0.097,0.639c-0.188-0.042-0.352-0.062-0.498-0.062
						c-0.366,0-0.682,0.147-0.943,0.446c-0.261,0.3-0.393,0.671-0.393,1.119v2.438h-0.688v-4.546h0.568l0.079,0.841h0.034
						c0.168-0.295,0.371-0.523,0.61-0.685C190.744,71.684,191.004,71.604,191.289,71.604z"/>
					<path fill="#FFFFFF" d="M195.487,74.995c0,0.421-0.16,0.747-0.475,0.978c-0.314,0.229-0.756,0.345-1.328,0.345
						c-0.602,0-1.07-0.097-1.411-0.288v-0.639c0.22,0.111,0.454,0.198,0.704,0.264c0.252,0.062,0.491,0.095,0.725,0.095
						c0.36,0,0.637-0.059,0.83-0.172c0.193-0.115,0.291-0.29,0.291-0.525c0-0.177-0.078-0.33-0.23-0.455
						c-0.154-0.123-0.453-0.273-0.898-0.444c-0.424-0.159-0.726-0.298-0.902-0.414c-0.178-0.117-0.311-0.251-0.399-0.398
						c-0.086-0.151-0.129-0.329-0.129-0.537c0-0.37,0.149-0.662,0.452-0.877c0.301-0.213,0.714-0.321,1.24-0.321
						c0.489,0,0.968,0.1,1.434,0.299l-0.244,0.56c-0.457-0.189-0.869-0.283-1.24-0.283c-0.326,0-0.572,0.052-0.736,0.155
						c-0.168,0.103-0.251,0.242-0.251,0.423c0,0.122,0.032,0.226,0.093,0.312c0.062,0.085,0.162,0.167,0.302,0.244
						c0.139,0.077,0.405,0.188,0.797,0.336c0.538,0.197,0.902,0.395,1.093,0.591C195.39,74.443,195.487,74.691,195.487,74.995z"/>
				</g>
				<g>
					<path fill="#FFFFFF" d="M55.556,71.935c0,0.615-0.209,1.086-0.628,1.416c-0.419,0.332-1.019,0.498-1.798,0.498h-0.714v2.386
						H51.71v-6.066h1.572C54.797,70.168,55.556,70.76,55.556,71.935z M52.416,73.243h0.633c0.626,0,1.079-0.101,1.357-0.305
						c0.279-0.201,0.42-0.523,0.42-0.97c0-0.4-0.131-0.7-0.395-0.896c-0.264-0.196-0.672-0.296-1.227-0.296h-0.789V73.243z"/>
					<path fill="#FFFFFF" d="M60.254,73.954c0,0.743-0.188,1.322-0.561,1.739c-0.373,0.416-0.889,0.624-1.547,0.624
						c-0.406,0-0.767-0.097-1.082-0.288c-0.315-0.189-0.56-0.465-0.73-0.821c-0.171-0.355-0.257-0.773-0.257-1.254
						c0-0.739,0.185-1.317,0.556-1.729c0.371-0.414,0.884-0.62,1.543-0.62c0.637,0,1.142,0.212,1.516,0.633
						C60.067,72.662,60.254,73.234,60.254,73.954z M56.791,73.954c0,0.582,0.115,1.026,0.348,1.329
						c0.232,0.304,0.573,0.456,1.024,0.456c0.452,0,0.793-0.15,1.025-0.452c0.235-0.305,0.352-0.747,0.352-1.333
						c0-0.575-0.116-1.016-0.352-1.316c-0.232-0.3-0.577-0.448-1.033-0.448c-0.451,0-0.792,0.148-1.021,0.443
						C56.905,72.928,56.791,73.37,56.791,73.954z"/>
					<path fill="#FFFFFF" d="M64.881,76.234l-0.833-2.668c-0.054-0.164-0.151-0.533-0.296-1.11h-0.033
						c-0.109,0.482-0.207,0.857-0.29,1.119l-0.858,2.659h-0.797l-1.24-4.546h0.723c0.292,1.142,0.517,2.01,0.67,2.609
						c0.153,0.598,0.24,0.998,0.262,1.206h0.034c0.03-0.159,0.079-0.361,0.147-0.612c0.068-0.25,0.126-0.447,0.176-0.594
						l0.834-2.609h0.746l0.813,2.609c0.156,0.473,0.259,0.874,0.315,1.197h0.033c0.012-0.099,0.041-0.253,0.088-0.46
						c0.05-0.208,0.338-1.324,0.866-3.347h0.714l-1.258,4.546H64.881z"/>
					<path fill="#FFFFFF" d="M69.401,76.317c-0.672,0-1.203-0.206-1.59-0.614c-0.39-0.407-0.584-0.979-0.584-1.707
						c0-0.73,0.18-1.312,0.543-1.745c0.359-0.432,0.845-0.646,1.453-0.646c0.568,0,1.02,0.186,1.353,0.561
						c0.331,0.376,0.497,0.87,0.497,1.484v0.435h-3.132c0.014,0.535,0.148,0.941,0.403,1.218c0.257,0.275,0.618,0.413,1.082,0.413
						c0.488,0,0.973-0.102,1.451-0.308v0.616c-0.244,0.105-0.475,0.179-0.691,0.225C69.969,76.293,69.709,76.317,69.401,76.317z
						 M69.214,72.18c-0.366,0-0.656,0.12-0.872,0.358c-0.22,0.239-0.346,0.567-0.386,0.985h2.378c0-0.432-0.098-0.766-0.291-0.997
						C69.85,72.297,69.573,72.18,69.214,72.18z"/>
					<path fill="#FFFFFF" d="M74.026,71.604c0.2,0,0.383,0.017,0.543,0.05l-0.096,0.639c-0.189-0.042-0.354-0.062-0.497-0.062
						c-0.368,0-0.685,0.147-0.944,0.446c-0.262,0.3-0.392,0.671-0.392,1.119v2.438h-0.69v-4.546h0.568l0.08,0.841h0.034
						c0.167-0.295,0.37-0.523,0.609-0.685C73.48,71.684,73.74,71.604,74.026,71.604z"/>
					<path fill="#FFFFFF" d="M76.993,76.317c-0.671,0-1.202-0.206-1.591-0.614c-0.389-0.407-0.582-0.979-0.582-1.707
						c0-0.73,0.18-1.312,0.541-1.745c0.359-0.432,0.846-0.646,1.453-0.646c0.57,0,1.021,0.186,1.353,0.561
						c0.332,0.376,0.497,0.87,0.497,1.484v0.435h-3.13c0.013,0.535,0.146,0.941,0.403,1.218c0.256,0.275,0.615,0.413,1.08,0.413
						c0.49,0,0.974-0.102,1.453-0.308v0.616c-0.243,0.105-0.475,0.179-0.691,0.225C77.562,76.293,77.301,76.317,76.993,76.317z
						 M76.807,72.18c-0.364,0-0.656,0.12-0.873,0.358c-0.218,0.239-0.344,0.567-0.385,0.985h2.379c0-0.432-0.098-0.766-0.291-0.997
						C77.444,72.297,77.166,72.18,76.807,72.18z"/>
					<path fill="#FFFFFF" d="M82.686,75.624H82.65c-0.316,0.461-0.793,0.693-1.427,0.693c-0.596,0-1.057-0.205-1.387-0.609
						c-0.331-0.406-0.496-0.986-0.496-1.735c0-0.748,0.166-1.332,0.498-1.747s0.793-0.621,1.385-0.621
						c0.616,0,1.09,0.225,1.419,0.672h0.054l-0.029-0.327l-0.017-0.321v-1.85h0.688v6.456h-0.56L82.686,75.624z M81.31,75.739
						c0.472,0,0.811-0.127,1.024-0.382c0.211-0.257,0.315-0.669,0.315-1.24v-0.145c0-0.645-0.106-1.104-0.319-1.379
						c-0.215-0.276-0.558-0.414-1.029-0.414c-0.402,0-0.711,0.158-0.927,0.473c-0.214,0.312-0.321,0.758-0.321,1.33
						c0,0.579,0.106,1.019,0.321,1.313C80.584,75.592,80.899,75.739,81.31,75.739z"/>
					<path fill="#FFFFFF" d="M88.951,71.613c0.598,0,1.061,0.203,1.391,0.611c0.331,0.408,0.497,0.984,0.497,1.729
						c0,0.75-0.167,1.329-0.5,1.742c-0.333,0.414-0.795,0.621-1.388,0.621c-0.295,0-0.566-0.056-0.809-0.165
						c-0.246-0.108-0.452-0.276-0.617-0.504h-0.051l-0.146,0.586h-0.493v-6.456h0.689v1.568c0,0.353-0.013,0.667-0.033,0.946h0.033
						C87.846,71.84,88.321,71.613,88.951,71.613z M88.852,72.189c-0.472,0-0.809,0.136-1.016,0.404s-0.311,0.723-0.311,1.36
						c0,0.642,0.107,1.098,0.318,1.374c0.215,0.275,0.555,0.411,1.023,0.411c0.424,0,0.738-0.155,0.947-0.461
						c0.207-0.31,0.311-0.753,0.311-1.331c0-0.592-0.104-1.032-0.311-1.32C89.606,72.335,89.287,72.189,88.852,72.189z"/>
					<path fill="#FFFFFF" d="M91.014,71.688h0.738l0.997,2.59c0.22,0.593,0.352,1.021,0.405,1.281h0.035
						c0.034-0.138,0.111-0.382,0.225-0.721c0.114-0.342,0.489-1.394,1.128-3.15h0.737l-1.954,5.175
						c-0.192,0.512-0.42,0.878-0.679,1.089c-0.259,0.216-0.574,0.324-0.953,0.324c-0.209,0-0.417-0.026-0.62-0.072v-0.552
						c0.151,0.033,0.321,0.05,0.51,0.05c0.473,0,0.811-0.266,1.013-0.797l0.252-0.646L91.014,71.688z"/>
				</g>
			</g>
			<path fill="#FFFFFF" d="M116.16,77.62c0-0.665,0.599-0.888,0.803-0.962c0.393-0.131,0.894-0.148,0.979-0.148
				c0.093,0,0.14,0,0.212,0.012c0.71,0.501,1.018,0.749,1.018,1.228c0,0.577-0.475,1.008-1.368,1.008
				C116.805,78.757,116.16,78.28,116.16,77.62 M116.627,73.349c0-0.242,0.049-0.492,0.205-0.688c0.15-0.188,0.412-0.309,0.654-0.309
				c0.773,0,1.173,1.044,1.173,1.716c0,0.168-0.019,0.467-0.232,0.68c-0.15,0.149-0.4,0.263-0.636,0.263
				C116.99,75.01,116.627,73.973,116.627,73.349 M118.073,72.044c-0.504,0-1.139,0.076-1.67,0.514
				c-0.398,0.347-0.594,0.821-0.594,1.248c0,0.729,0.559,1.463,1.547,1.463c0.094,0,0.195-0.01,0.297-0.018
				c-0.046,0.11-0.093,0.203-0.093,0.363c0,0.287,0.149,0.465,0.279,0.634c-0.419,0.028-1.202,0.074-1.778,0.43
				c-0.552,0.324-0.717,0.8-0.717,1.136c0,0.691,0.651,1.332,2.004,1.332c1.6,0,2.449-0.884,2.449-1.762
				c0-0.643-0.372-0.959-0.783-1.305l-0.335-0.26c-0.103-0.085-0.245-0.195-0.245-0.4c0-0.206,0.143-0.336,0.264-0.456
				c0.392-0.31,0.782-0.634,0.782-1.325c0-0.708-0.445-1.08-0.662-1.259h0.579l0.597-0.335H118.073z M123.213,73.513
				c0-1.002,0.697-1.29,1.068-1.29c0.502,0,0.92,0.426,0.92,0.797c0,0.131-0.094,0.187-0.271,0.252l-1.688,0.732
				C123.231,73.838,123.213,73.672,123.213,73.513 M122.412,74.062c0,0.696,0.289,1.496,0.95,1.962
				c0.474,0.342,0.938,0.359,1.235,0.359c0.279,0,0.594-0.036,0.901-0.177c0.103-0.045,0.204-0.109,0.307-0.166l0.492-0.465
				c-0.315,0.159-0.657,0.325-1.133,0.325c-0.884,0-1.683-0.688-1.916-1.869l0.716-0.053l2.183-0.884
				c-0.063-0.213-0.185-0.612-0.648-0.919c-0.278-0.176-0.622-0.259-0.958-0.259C123.586,71.917,122.412,72.621,122.412,74.062
				 M106.344,73.651c0-0.399,0.067-0.81,0.43-1.136c0.223-0.195,0.529-0.314,0.838-0.314c1.152,0,1.543,1.562,1.543,2.382
				c0,0.365-0.057,0.735-0.275,1.031c-0.216,0.299-0.59,0.476-0.953,0.476C106.801,76.09,106.344,74.573,106.344,73.651
				 M105.442,74.173c0,1.04,0.789,2.194,2.271,2.194c1.517,0,2.365-1.161,2.365-2.26c0-1.124-0.857-2.196-2.227-2.196
				C106.438,71.911,105.442,72.953,105.442,74.173 M111.571,73.651c0-0.399,0.064-0.81,0.428-1.136
				c0.223-0.195,0.529-0.314,0.838-0.314c1.154,0,1.545,1.562,1.545,2.382c0,0.365-0.057,0.735-0.28,1.031
				c-0.213,0.299-0.587,0.476-0.95,0.476C112.026,76.09,111.571,74.573,111.571,73.651 M110.668,74.173
				c0,1.04,0.79,2.194,2.268,2.194c1.52,0,2.364-1.161,2.364-2.26c0-1.124-0.854-2.196-2.223-2.196
				C111.664,71.911,110.668,72.953,110.668,74.173 M98.227,73.304c0,1.489,0.983,3.389,3.566,3.389c0.512,0,1-0.076,1.544-0.159
				l1.336-0.311v-1.14c0-0.094,0.009-0.368,0.019-0.447c0.021-0.079,0.027-0.097,0.096-0.15l0.242-0.236h-1.983l-0.75,0.401
				l1.415-0.074v1.508c-0.281,0.11-0.59,0.232-1.189,0.232c-2.04,0-3.312-1.654-3.312-3.412c0-1.638,1.113-2.762,2.591-2.762
				c1.105,0,1.684,0.572,2.003,0.879l-0.235,0.373l0.327-0.073l0.777-0.739c-0.206-0.141-0.535-0.383-1.235-0.578
				c-0.439-0.125-0.926-0.197-1.43-0.197C99.621,69.807,98.227,71.488,98.227,73.304 M120.584,69.59l-0.701,0.336h0.715v0.006
				v-0.004v5.476v0.308c0,0.188-0.039,0.215-0.252,0.495h1.656l0.344-0.204c-0.157-0.019-0.316-0.029-0.476-0.047
				c-0.31-0.029-0.374-0.085-0.374-0.447v-0.104V70.2c0.002-0.019,0.004-0.037,0.006-0.058c0.036-0.326,0.131-0.385,0.419-0.553
				H120.584z"/>
		</g>
	</g>
	<text transform="matrix(1 0 0 1 -19.0281 105.9102)" fill="#FFFFFF" font-family="'Roboto-Bold'" font-size="21.0842">São José dos Campos</text>
</g>
</svg>
