<?xml version="1.0" encoding="utf-8"?>
<!-- Generator: Adobe Illustrator 16.0.0, SVG Export Plug-In . SVG Version: 6.00 Build 0)  -->
<!DOCTYPE svg PUBLIC "-//W3C//DTD SVG 1.1//EN" "http://www.w3.org/Graphics/SVG/1.1/DTD/svg11.dtd">
<svg version="1.1" id="Layer_1" xmlns="http://www.w3.org/2000/svg" xmlns:xlink="http://www.w3.org/1999/xlink" x="0px" y="0px"
	 width="97.193px" height="106.285px" viewBox="0 0 97.193 106.285" enable-background="new 0 0 97.193 106.285"
	 xml:space="preserve">
<g>
	<path fill="#FFFFFF" d="M19.011,35.484c0,12.779,19.663,37.789,29.586,49.078c9.923-11.291,29.587-36.307,29.587-49.078
		c0-16.314-13.272-29.588-29.587-29.588S19.011,19.17,19.011,35.484L19.011,35.484z M48.597,18.602
		c8.358,0,15.157,6.799,15.157,15.156s-6.799,15.158-15.157,15.158c-8.356,0-15.157-6.801-15.157-15.158S40.24,18.602,48.597,18.602
		L48.597,18.602z M48.597,18.602"/>
	<path fill="#434343" d="M95.204,84.875L64.545,74.33c0.892-1.172,1.795-2.381,2.7-3.617c11.172-15.285,16.836-27.137,16.836-35.229
		C84.081,15.92,68.163,0,48.597,0S13.113,15.92,13.113,35.484c0,8.092,5.664,19.943,16.835,35.229
		c0.913,1.248,1.824,2.465,2.722,3.645L1.992,84.873C0.802,85.281,0.001,86.402,0,87.66c0,1.26,0.8,2.383,1.989,2.791l45.57,15.674
		c0.31,0.105,0.634,0.16,0.958,0.16c0.322,0,0.646-0.053,0.957-0.16l45.727-15.672c1.192-0.408,1.992-1.529,1.992-2.789
		S96.396,85.283,95.204,84.875L95.204,84.875z M78.184,35.484c0,12.771-19.664,37.787-29.588,49.078
		c-9.922-11.289-29.585-36.299-29.585-49.078c0-16.314,13.271-29.588,29.586-29.588S78.184,19.17,78.184,35.484L78.184,35.484z
		 M48.52,100.217L12.03,87.668l24.479-8.391c5.414,6.771,9.669,11.43,9.913,11.697c0.559,0.609,1.349,0.957,2.175,0.957
		c0.827,0,1.618-0.348,2.175-0.957c0.243-0.268,4.512-4.941,9.937-11.727l24.455,8.41L48.52,100.217z M48.52,100.217"/>
	<path fill="#434343" d="M48.597,48.916c8.358,0,15.157-6.801,15.157-15.158s-6.799-15.156-15.157-15.156
		c-8.356,0-15.157,6.799-15.157,15.156S40.24,48.916,48.597,48.916L48.597,48.916z M57.855,33.758c0,5.105-4.153,9.258-9.259,9.258
		s-9.259-4.152-9.259-9.258s4.153-9.258,9.259-9.258S57.855,28.652,57.855,33.758L57.855,33.758z M57.855,33.758"/>
</g>
</svg>
